<svg width="110" height="111" viewBox="0 0 110 111" fill="none" xmlns="http://www.w3.org/2000/svg">
<path d="M55.0121 27.7853C39.405 27.7853 26.816 40.3771 26.816 55.9879C26.816 71.5987 39.405 84.1905 55.0121 84.1905C70.6197 84.1905 83.2088 71.5987 83.2088 55.9879C83.2088 40.3771 70.6197 27.7853 55.0121 27.7853ZM55.0121 74.3234C44.9262 74.3234 36.681 66.1006 36.681 55.9879C36.681 45.8752 44.902 37.6525 55.0121 37.6525C65.1226 37.6525 73.3437 45.8752 73.3437 55.9879C73.3437 66.1006 65.0981 74.3234 55.0121 74.3234ZM90.9389 26.6316C90.9389 30.2889 87.9938 33.2098 84.362 33.2098C80.7056 33.2098 77.7855 30.2643 77.7855 26.6316C77.7855 22.9989 80.7302 20.0535 84.362 20.0535C87.9938 20.0535 90.9389 22.9989 90.9389 26.6316ZM109.614 33.308C109.196 24.4962 107.184 16.6908 100.73 10.2599C94.3005 3.82898 86.4971 1.81626 77.6872 1.37444C68.6074 0.858991 41.3927 0.858991 32.3129 1.37444C23.5276 1.79172 15.7239 3.80444 9.26996 10.2353C2.81595 16.6662 0.82822 24.4716 0.386503 33.2834C-0.128835 42.3651 -0.128835 69.5861 0.386503 78.6677C0.803683 87.4795 2.81595 95.2851 9.26996 101.716C15.7239 108.147 23.5031 110.16 32.3129 110.601C41.3927 111.117 68.6074 111.117 77.6872 110.601C86.4971 110.184 94.3005 108.171 100.73 101.716C107.16 95.2851 109.172 87.4795 109.614 78.6677C110.129 69.5861 110.129 42.3897 109.614 33.308ZM97.8836 88.4123C95.9696 93.2233 92.264 96.9296 87.4295 98.8685C80.1904 101.741 63.0125 101.078 55.0121 101.078C47.0122 101.078 29.8098 101.716 22.5951 98.8685C17.7853 96.9541 14.0798 93.2479 12.1411 88.4123C9.26996 81.1713 9.93253 63.9897 9.93253 55.9879C9.93253 47.9861 9.29449 30.7798 12.1411 23.5635C14.0552 18.7526 17.7608 15.0462 22.5951 13.1071C29.8344 10.2353 47.0122 10.8981 55.0121 10.8981C63.0125 10.8981 80.2146 10.2599 87.4295 13.1071C92.2395 15.0217 95.945 18.728 97.8836 23.5635C100.755 30.8043 100.092 47.9861 100.092 55.9879C100.092 63.9897 100.755 81.1959 97.8836 88.4123Z" fill="url(#paint0_linear)"/>
<defs>
<linearGradient id="paint0_linear" x1="55" y1="0.987854" x2="55" y2="110.988" gradientUnits="userSpaceOnUse">
<stop stop-color="#FF0000"/>
<stop offset="1" stop-color="#876FE7"/>
</linearGradient>
</defs>
</svg>
