<svg width="111" height="101" viewBox="0 0 111 101" fill="none" xmlns="http://www.w3.org/2000/svg">
<path d="M98.7681 25.9097C98.8381 27.0033 98.8381 28.0973 98.8381 29.191C98.8381 62.5502 76.1539 100.988 34.6944 100.988C21.9214 100.988 10.056 96.8472 0.0749512 89.6599C1.88974 89.8942 3.6345 89.9722 5.51911 89.9722C16.0583 89.9722 25.7603 85.9879 33.5078 79.1912C23.5966 78.9565 15.2907 71.6912 12.4289 61.6909C13.825 61.9252 15.2209 62.0815 16.6867 62.0815C18.7108 62.0815 20.735 61.7689 22.6195 61.2222C12.2895 58.8782 4.54179 48.7222 4.54179 36.4565V36.1442C7.54296 38.0192 11.0331 39.1912 14.7321 39.3472C8.65972 34.8159 4.68142 27.0815 4.68142 18.3314C4.68142 13.644 5.798 9.34715 7.75244 5.59712C18.8502 20.9096 35.5318 30.9094 54.2371 32.0034C53.8884 30.1284 53.6791 28.1754 53.6791 26.2223C53.6791 12.3159 63.7298 0.987854 76.2235 0.987854C82.7147 0.987854 88.5773 4.03472 92.6957 8.95659C97.7905 7.86289 102.676 5.75342 107.004 2.86287C105.328 8.72239 101.769 13.6443 97.0928 16.769C101.63 16.2224 106.027 14.8159 110.075 12.863C107.004 17.8627 103.165 22.3157 98.7681 25.9097Z" fill="#66A3FF"/>
</svg>
