<svg width="111" height="81" viewBox="0 0 111 81" fill="none" xmlns="http://www.w3.org/2000/svg">
<path d="M107.851 13.5051C106.586 8.57806 102.859 4.69765 98.1261 3.38077C89.5479 0.987854 55.1499 0.987854 55.1499 0.987854C55.1499 0.987854 20.7521 0.987854 12.1736 3.38077C7.44096 4.69787 3.71354 8.57806 2.44846 13.5051C0.149902 22.4358 0.149902 41.0688 0.149902 41.0688C0.149902 41.0688 0.149902 59.7015 2.44846 68.6323C3.71354 73.5594 7.44096 77.2781 12.1736 78.5949C20.7521 80.9879 55.1499 80.9879 55.1499 80.9879C55.1499 80.9879 89.5476 80.9879 98.1261 78.5949C102.859 77.2781 106.586 73.5594 107.851 68.6323C110.15 59.7015 110.15 41.0688 110.15 41.0688C110.15 41.0688 110.15 22.4358 107.851 13.5051ZM43.8997 57.9859V24.1514L72.6498 41.0691L43.8997 57.9859Z" fill="#FF0000"/>
</svg>
